PathFileType	4	(X/Y/Z)	C:\Users\Admin\Desktop\Capture Files\05302019 Reflex Trials\StaticTrial_2-Unnamed.trc
DataRate	CameraRate	NumFrames	NumMarkers	Units	OrigDataRate	OrigDataStartFrame	OrigNumFrames
300.00	300.00	      15	0	mm	300.00	311	      2482
Frame#	Time	
		

311	1.033	579.20593	-623.98669	918.14252	895.25208	-724.75305	1115.02905	497.84570	-499.29037	874.49451				432.20963	-312.96155	455.34140	180.06020	-512.61035	610.77258	158.20972	-529.01727	409.17957	821.72516	-765.64551	1020.79364	290.21805	-498.66116	729.93292				182.88013	-588.95544	724.72845	370.78006	-425.54373	714.72919	499.72641	-364.92490	739.04840				428.45557	-327.21515	639.58899	
312	1.037	579.19104	-623.96466	918.16077	895.24542	-724.76477	1114.99792	497.84451	-499.28049	874.50800				432.19427	-312.96912	455.34238	180.06522	-512.59937	610.79205	158.22554	-529.02368	409.17184	821.79926	-765.72797	1020.79388	290.20514	-498.65860	729.93500				182.86288	-588.95941	724.73596	370.78397	-425.55185	714.71381	499.71445	-364.92001	739.04065				428.46307	-327.22101	639.59698	
313	1.040	579.19775	-623.97321	918.16296	895.26862	-724.81067	1115.04395	497.84860	-499.27692	874.50037				432.20770	-312.96979	455.34875	180.05325	-512.59711	610.77954	158.21397	-529.04120	409.16815	821.74823	-765.71173	1020.78931	290.22614	-498.66693	729.92047				182.87869	-588.95618	724.71979	370.79120	-425.55481	714.71155	499.71613	-364.91751	739.04553				428.45139	-327.22098	639.60022	
314	1.043	579.18579	-623.97485	918.17804	895.24133	-724.74969	1115.04492	497.84961	-499.26746	874.51263				432.18311	-312.98328	455.33582	180.07756	-512.60626	610.77014	158.22127	-529.03668	409.16400	821.75031	-765.71637	1020.78131	290.21570	-498.66766	729.92090				182.87633	-588.94672	724.72760	370.77524	-425.54825	714.72626	499.69553	-364.90353	739.04657				428.43399	-327.22449	639.60913	
315	1.047	579.19470	-623.98059	918.14008	895.29633	-724.82892	1115.02661	497.85657	-499.27963	874.52051				432.18939	-312.95877	455.34103	180.05603	-512.61346	610.76001	158.22047	-529.04602	409.18002	821.75671	-765.73657	1020.80487	290.22577	-498.66083	729.92694				182.87030	-588.96869	724.73761	370.76395	-425.53680	714.71411	499.70810	-364.88785	739.04724				428.44455	-327.21280	639.59918	
316	1.050	579.21539	-623.98248	918.14941	895.23016	-724.80383	1115.03687	497.82742	-499.27328	874.51691				432.19260	-312.97763	455.34622	180.05470	-512.59991	610.77240	158.19960	-529.04010	409.17841	821.68579	-765.69556	1020.79456	290.21713	-498.64075	729.94012				182.86250	-588.96570	724.74280	370.77438	-425.54077	714.71777	499.68945	-364.90652	739.04724				428.44171	-327.21680	639.59961	
317	1.053	579.16614	-623.96582	918.16760	895.23053	-724.78833	1115.01855	497.83084	-499.25806	874.52081				432.18295	-312.97156	455.35211	180.04318	-512.59991	610.78339	158.18790	-529.03937	409.17682	821.73199	-765.75189	1020.83557	290.20004	-498.65552	729.91638				182.87350	-588.96680	724.70996	370.77734	-425.55392	714.71954	499.70251	-364.89847	739.04675				428.42703	-327.20270	639.59467	
318	1.057	579.19629	-623.98547	918.15930	895.24664	-724.82208	1115.04980	497.84879	-499.26743	874.51117				432.16312	-312.97421	455.33994	180.06200	-512.60999	610.76929	158.22244	-529.06964	409.15677	821.71088	-765.76666	1020.80579	290.21112	-498.66592	729.92426				182.85841	-588.94666	724.72577	370.77515	-425.55670	714.72736	499.68311	-364.86853	739.04565				428.43637	-327.21552	639.59863	
319	1.060	579.18042	-623.95062	918.17566	895.18225	-724.77228	1115.05676	497.81638	-499.25314	874.52362				432.18118	-312.97983	455.33261	180.07320	-512.63037	610.77008	158.19814	-529.05261	409.15988	821.69690	-765.74890	1020.80927	290.19052	-498.65234	729.92267				182.84900	-588.94781	724.73175	370.76544	-425.54605	714.73438	499.68738	-364.90607	739.03925				428.42459	-327.20618	639.61792	
320	1.063	579.17133	-623.96570	918.15338	895.16888	-724.74725	1115.04846	497.82498	-499.25125	874.52020				432.19119	-312.99542	455.33765	180.06093	-512.63751	610.75916	158.20378	-529.04498	409.16061	821.64850	-765.67377	1020.81482	290.19293	-498.65988	729.92548				182.85059	-588.97217	724.73096	370.77170	-425.54404	714.73181	499.68011	-364.89957	739.05951				428.40942	-327.20303	639.60876	
321	1.067	579.16882	-623.98035	918.15961	895.16864	-724.77930	1115.03625	497.79404	-499.26382	874.52765				432.14786	-312.96866	455.35495	180.03954	-512.61951	610.76044	158.21510	-529.08124	409.14410	821.60419	-765.65527	1020.82623	290.20129	-498.65128	729.93518				182.85056	-588.95154	724.73218	370.75790	-425.55362	714.74139	499.67993	-364.88037	739.04675				428.41772	-327.20303	639.62244	
322	1.070	579.17627	-623.97394	918.14618	895.16901	-724.81213	1115.05396	497.81644	-499.24084	874.52411				432.14841	-312.96393	455.35852	180.03322	-512.62164	610.77948	158.21251	-529.04926	409.16803	821.65442	-765.72986	1020.83838	290.19641	-498.65451	729.93390				182.84798	-588.95905	724.71771	370.76166	-425.53506	714.73029	499.66962	-364.88751	739.06189				428.41272	-327.20782	639.61743	
323	1.073	579.16949	-623.97345	918.16205	895.19464	-724.80817	1115.04993	497.82504	-499.28183	874.54248				432.15576	-312.96463	455.36996	180.03595	-512.60938	610.75665	158.19702	-529.05957	409.16061	821.66180	-765.73865	1020.83002	290.19000	-498.66565	729.92029				182.83810	-588.95154	724.71533	370.74634	-425.53632	714.73425	499.66446	-364.88535	739.05316				428.39447	-327.20593	639.60815	
324	1.077	579.15393	-623.96375	918.16431	895.16577	-724.76196	1115.05249	497.81036	-499.26401	874.53650				432.14487	-312.95898	455.36560	180.03369	-512.61383	610.76764	158.21622	-529.08032	409.15585	821.66272	-765.73969	1020.80853	290.20126	-498.65152	729.93201				182.80099	-588.95050	724.73364	370.75726	-425.55115	714.72461	499.67078	-364.89926	739.04163				428.38644	-327.19269	639.61475	
325	1.080	579.16101	-623.96753	918.16248	895.21863	-724.81226	1115.03503	497.82193	-499.26855	874.52673				432.13464	-312.95526	455.34998	180.04822	-512.62354	610.76294	158.19067	-529.06763	409.15622	821.66998	-765.75928	1020.81982	290.17191	-498.65460	729.93756				182.82777	-588.95135	724.71094	370.75391	-425.55029	714.74609	499.64630	-364.88745	739.04877				428.38004	-327.19644	639.61713	
